<svg version="1.2" xmlns="http://www.w3.org/2000/svg" viewBox="0 0 102 111" width="102" height="111">
	<title>iconly-glass-paper-svg</title>
	<defs>
		<linearGradient id="g1" x1="1181.6" y1="739.9" x2="3780.8" y2="5185.6" gradientUnits="userSpaceOnUse">
			<stop offset="0" stop-color="#ffffff" stop-opacity=".3"/>
			<stop offset="1" stop-color="#ffffff" stop-opacity="0"/>
		</linearGradient>
		<linearGradient id="g2" x1="3426.2" y1="6" x2="3426.2" y2="6599.7" gradientUnits="userSpaceOnUse">
			<stop offset="0" stop-color="#ff9496"/>
			<stop offset="1" stop-color="#ff6666"/>
		</linearGradient>
		<filter x="-50%" y="-50%" width="200%" height="200%" id="f1"> <feGaussianBlur stdDeviation="8"/> </filter>
		<linearGradient id="g3" x1="2117" y1="24" x2="2117" y2="4012.8" gradientUnits="userSpaceOnUse">
			<stop offset="0" stop-color="#ff9494"/>
			<stop offset="1" stop-color="#ff6666"/>
		</linearGradient>
		<linearGradient id="g4" x1="775.3" y1="204.9" x2="-110.5" y2="229.8" gradientUnits="userSpaceOnUse">
			<stop offset="0" stop-color="#ffffff"/>
			<stop offset="1" stop-color="#ffffff" stop-opacity=".2"/>
		</linearGradient>
		<linearGradient id="g5" x1="162.9" y1="167" x2="625.5" y2="661.6" gradientUnits="userSpaceOnUse">
			<stop offset="0" stop-color="#ffffff" stop-opacity=".3"/>
			<stop offset="1" stop-color="#ffffff" stop-opacity="0"/>
		</linearGradient>
		<linearGradient id="g6" x1="438.6" y1="101.2" x2="-6.9" y2="115.8" gradientUnits="userSpaceOnUse">
			<stop offset="0" stop-color="#ffffff"/>
			<stop offset="1" stop-color="#ffffff" stop-opacity=".2"/>
		</linearGradient>
		<clipPath clipPathUnits="userSpaceOnUse" id="cp1">
			<path d="m67 41.12v-10.25c0-1.67 2.1-2.51 3.3-1.3 4.34 4.37 11.92 12.02 16.16 16.29 1.17 1.18 0.31 3.13-1.38 3.14-3.3 0.01-7.19 0-9.98-0.03-4.44 0-8.1-3.54-8.1-7.85z"/>
		</clipPath>
		<linearGradient id="g7" x1="143" y1="86.9" x2="413.4" y2="421.9" gradientUnits="userSpaceOnUse">
			<stop offset="0" stop-color="#ffffff" stop-opacity=".3"/>
			<stop offset="1" stop-color="#ffffff" stop-opacity="0"/>
		</linearGradient>
	</defs>
	<style>
		.s0 { opacity: .3;fill: #ff909b } 
		.s1 { fill: none;stroke: url(#g1);stroke-linecap: round;stroke-linejoin: round } 
		.s2 { fill: url(#g2) } 
		.s3 { filter: url(#f1);fill: url(#g3) } 
		.s4 { fill: url(#g4);stroke: url(#g5);stroke-width: .4 } 
		.s5 { fill: url(#g6) } 
		.s6 { fill: url(#g7) } 
	</style>
	<g id="Page-1">
		<g id="iconly-glass-paper">
			<path id="Path" class="s0" d="m42.1 24h29.9l21 22.6v40.2c0 10.1-8.1 18.2-18 18.2h-32c-10.5 0-19-8.5-19-19.1v-43.6c0-10.1 8.1-18.3 18.1-18.3z"/>
			<path id="Path" class="s1" d="m42.6 25h29.6l20.8 22.3v40c0 9.8-7.9 17.7-17.5 17.7h-32c-10.2 0-18.5-8.3-18.5-18.6v-43.6c0-9.8 7.9-17.8 17.6-17.8z"/>
			<path id="Path" class="s2" d="m59 6c10.5 0 19 8.6 19 19.2v5.7l-6-6.4h-29.8c-10 0-18.1 8.3-18.1 18.3v43.9q0 0.2 0 0.3c-8.6-1.8-15.1-9.5-15.1-18.8v-43.9c0-10.1 8.1-18.3 18-18.3z"/>
			<path id="Path" class="s3" d="m78 30.4v38.3c0 10.1-8.1 18.3-18.1 18.3h-32q-2 0-3.9-0.4 0-0.1 0-0.3v-43.9c0-10.1 8.1-18.4 18.2-18.4h29.8z"/>
			<path id="Shape" class="s4" d="m44.9 56h14.2c1.6 0 2.9 1.4 2.9 3 0 1.7-1.3 3-2.9 3h-14.2c-1.6 0-2.9-1.3-2.9-3 0-1.6 1.3-3 2.9-3zm22.2 26h-22.2c-1.6 0-2.9-1.4-2.9-3 0-1.7 1.3-3 2.9-3h22.2c1.6 0 2.9 1.3 2.9 3 0 1.6-1.3 3-2.9 3z"/>
			<g id="Group">
				<path id="Path" class="s5" d="m67 41.1v-10.2c0-1.7 2.1-2.5 3.3-1.3 4.3 4.3 11.9 12 16.2 16.3 1.1 1.1 0.3 3.1-1.4 3.1-3.3 0-7.2 0-10 0-4.4 0-8.1-3.6-8.1-7.9z"/>
				<g id="Clipped">
					<g id="Path">
					</g>
					<g id="Clip-Path: Shape" clip-path="url(#cp1)">
						<path id="Shape" fill-rule="evenodd" class="s6" d="m76 49.1c2.8 0 6.7 0 10 0v0.8c-3.3 0-7.2 0-10 0zm10 0.1c1.2 0 1.7-1.7 0.9-2.6l0.5-0.6c1.3 1.5 0.3 4-1.4 4zm0.4-2.2c-4.3-4.3-12-12-16.4-16.4l0.6-0.6c4.4 4.5 12.1 12.2 16.4 16.5zm-0.9 2.7v-0.4zm1.1-3.4l-0.3 0.3zm-16.2-16.2c-1-0.9-2.6-0.3-2.6 0.9h0.1v10h-0.8v-10h-0.1c0-1.9 2.5-2.7 4-1.4zm-2.6 11.9c0 3.9 3.7 7.2 8.2 7.2v0.8c-5 0-9-3.6-9-8zm2.8-11.7l-0.3 0.3z"/>
					</g>
				</g>
			</g>
		</g>
	</g>
</svg>